<?xml version="1.0" standalone="no"?>
<!DOCTYPE svg PUBLIC "-//W3C//DTD SVG 20010904//EN"
 "http://www.w3.org/TR/2001/REC-SVG-20010904/DTD/svg10.dtd">
<svg version="1.0" xmlns="http://www.w3.org/2000/svg"
 width="1024.000000pt" height="1024.000000pt" viewBox="0 0 1024.000000 1024.000000"
 preserveAspectRatio="xMidYMid meet">
<metadata>
Created by potrace 1.14, written by Peter Selinger 2001-2017
</metadata>
<g transform="translate(0.000000,1024.000000) scale(0.100000,-0.100000)"
fill="#000000" stroke="none">
<path d="M3857 8894 c-1 -1 -38 -4 -82 -7 -165 -13 -283 -46 -502 -143 -274
-120 -594 -293 -663 -356 -11 -10 -22 -18 -25 -18 -8 0 -86 -62 -150 -120
-140 -127 -282 -300 -442 -538 -180 -270 -242 -421 -268 -662 -14 -130 -53
-213 -189 -404 -39 -54 -118 -153 -175 -220 -206 -240 -319 -400 -402 -571
-43 -89 -95 -227 -105 -278 -2 -10 -5 -26 -8 -35 -3 -9 -8 -33 -11 -52 -3 -19
-7 -46 -10 -60 -2 -14 -7 -56 -10 -95 -3 -38 -8 -81 -10 -95 -4 -24 -14 -124
-20 -205 -6 -63 -17 -177 -21 -210 -2 -16 -6 -67 -9 -112 -4 -46 -8 -109 -10
-140 -5 -63 -5 -350 -1 -728 2 -261 7 -287 61 -395 70 -137 391 -507 494 -567
25 -14 50 -30 56 -35 26 -20 365 -279 430 -328 61 -46 151 -105 250 -163 11
-7 22 -14 25 -17 15 -16 417 -270 427 -270 3 0 17 -8 31 -19 61 -42 451 -241
612 -311 161 -70 508 -200 575 -215 11 -2 38 -9 60 -15 44 -12 69 -18 103 -24
13 -3 31 -7 40 -10 9 -3 33 -7 52 -10 19 -3 46 -8 60 -11 14 -3 40 -7 59 -10
18 -2 41 -6 50 -9 9 -3 43 -8 76 -11 32 -4 62 -8 65 -10 3 -1 37 -6 76 -9 39
-4 80 -8 90 -10 20 -4 140 -15 239 -21 123 -9 385 -15 910 -21 801 -10 759
-11 875 22 150 43 194 54 238 59 26 3 63 7 82 10 19 2 109 6 200 10 91 3 175
7 185 9 11 2 37 7 59 10 21 4 98 28 170 52 438 149 541 182 706 224 181 47
219 70 359 219 260 277 347 378 409 477 23 38 79 107 123 154 147 156 199 261
195 391 -2 60 -8 79 -70 200 -38 74 -81 152 -96 174 -35 51 -220 240 -283 290
-59 47 -72 85 -43 134 15 26 41 44 120 81 133 63 215 100 222 100 3 0 47 28
97 62 82 57 157 123 157 139 0 4 18 26 41 50 62 67 92 138 87 208 -2 33 -14
76 -27 102 -39 76 -152 247 -211 319 -104 127 -370 512 -370 534 0 18 12 33
44 56 25 16 47 30 51 30 5 0 35 17 131 77 10 7 47 29 82 50 52 31 62 41 62 65
0 21 5 28 19 28 26 0 59 44 67 89 4 20 8 43 9 51 8 45 52 152 114 281 94 193
114 271 107 409 -3 58 -8 116 -10 130 -5 28 -13 89 -21 165 -5 42 -31 205 -40
256 -26 134 -76 259 -125 310 -18 19 -42 45 -54 59 -11 14 -39 39 -62 57 -55
43 -579 304 -779 388 -88 36 -169 71 -180 76 -11 5 -69 27 -130 48 -60 22
-148 58 -195 81 -47 23 -116 57 -155 75 -38 18 -155 74 -258 124 -104 50 -191
91 -194 91 -2 0 -43 23 -89 50 -212 125 -347 176 -529 197 -78 9 -320 9 -410
0 -72 -7 -91 -10 -185 -28 -76 -15 -293 -78 -304 -90 -6 -5 -16 -9 -23 -9 -8
0 -70 -27 -140 -60 -70 -33 -146 -67 -170 -75 -53 -18 -132 -19 -170 -3 -48
20 -228 134 -458 289 -203 137 -432 217 -666 235 -82 6 -287 12 -292 8z"/>
</g>
</svg>
